<?xml version="1.0" encoding="UTF-8" standalone="no"?>
<!DOCTYPE svg PUBLIC "-//W3C//DTD SVG 1.1//EN" "http://www.w3.org/Graphics/SVG/1.1/DTD/svg11.dtd">
<svg width="100%" height="100%" viewBox="0 0 268 95" version="1.1" xmlns="http://www.w3.org/2000/svg" xmlns:xlink="http://www.w3.org/1999/xlink" xml:space="preserve" style="fill-rule:evenodd;clip-rule:evenodd;stroke-linejoin:round;stroke-miterlimit:1.41421;">
    <g transform="matrix(4.53458,0,0,1.44213,-27.4572,21.3913)">
        <g id="Layer6">
            <rect x="6.101" y="-14.306" width="58.994" height="65.375" style="fill:rgb(233,152,32);"/>
        </g>
    </g>
    <g id="Layer1">
        <g transform="matrix(1,0,0,1,-39.4487,40.0318)">
            <path d="M92.52,5.243C87.377,15.074 81.843,20.478 71.752,20.478C56.452,20.478 45.449,8.498 45.449,-9.47C45.449,-23.663 54.304,-37.074 70.905,-37.074C81.517,-37.074 88.028,-32.908 90.697,-22.361L93.627,-23.012C93.041,-28.416 92.324,-32.517 91.543,-37.921C88.809,-38.377 81.778,-40.655 73.444,-40.655C50.853,-40.655 34.642,-27.504 34.642,-7.452C34.642,7.587 45.84,24.189 70.97,24.189C78.197,24.189 86.791,22.105 89.655,21.454C91.348,18.394 94.017,10.907 95.319,6.35L92.52,5.243Z" style="fill:none;"/>
            <path d="M92.52,5.243C87.377,15.074 81.843,20.478 71.752,20.478C56.452,20.478 45.449,8.498 45.449,-9.47C45.449,-23.663 54.304,-37.074 70.905,-37.074C81.517,-37.074 88.028,-32.908 90.697,-22.361L93.627,-23.012C93.041,-28.416 92.324,-32.517 91.543,-37.921C88.809,-38.377 81.778,-40.655 73.444,-40.655C50.853,-40.655 34.642,-27.504 34.642,-7.452C34.642,7.587 45.84,24.189 70.97,24.189C78.197,24.189 86.791,22.105 89.655,21.454C91.348,18.394 94.017,10.907 95.319,6.35L92.52,5.243Z" style="fill:white;fill-rule:nonzero;"/>
        </g>
        <g transform="matrix(2.28871,0,0,2.14919,-23.4218,46.8501)">
            <path d="M59.632,-11.528C59.022,-16.028 58.694,-18.84 58.413,-21.278C55.788,-22.121 52.647,-22.918 49.319,-22.918C40.179,-22.918 34.647,-17.246 34.647,-10.403C34.647,-2.856 41.35,0.566 46.225,3.004C51.569,5.816 55.319,8.16 55.319,13.129C55.319,18.051 52.319,21.191 47.21,21.191C40.038,21.191 36.616,14.019 35.444,9.66L33.335,10.269C33.757,13.597 34.788,19.832 35.257,21.191C35.96,21.519 36.944,22.082 38.725,22.644C40.507,23.254 42.85,23.769 45.757,23.769C55.319,23.769 61.6,17.91 61.6,10.551C61.6,3.004 55.413,-0.231 49.46,-3.137C43.741,-5.903 40.507,-8.246 40.507,-13.074C40.507,-16.824 42.991,-20.528 48.241,-20.528C54.147,-20.528 56.304,-15.559 57.522,-11.153L59.632,-11.528Z" style="fill:none;"/>
            <path d="M59.632,-11.528C59.022,-16.028 58.694,-18.84 58.413,-21.278C55.788,-22.121 52.647,-22.918 49.319,-22.918C40.179,-22.918 34.647,-17.246 34.647,-10.403C34.647,-2.856 41.35,0.566 46.225,3.004C51.569,5.816 55.319,8.16 55.319,13.129C55.319,18.051 52.319,21.191 47.21,21.191C40.038,21.191 36.616,14.019 35.444,9.66L33.335,10.269C33.757,13.597 34.788,19.832 35.257,21.191C35.96,21.519 36.944,22.082 38.725,22.644C40.507,23.254 42.85,23.769 45.757,23.769C55.319,23.769 61.6,17.91 61.6,10.551C61.6,3.004 55.413,-0.231 49.46,-3.137C43.741,-5.903 40.507,-8.246 40.507,-13.074C40.507,-16.824 42.991,-20.528 48.241,-20.528C54.147,-20.528 56.304,-15.559 57.522,-11.153L59.632,-11.528Z" style="fill:white;fill-rule:nonzero;"/>
        </g>
        <g transform="matrix(1.46864,0,0,1.35524,71.0902,30.5865)">
            <path d="M84.231,-22.994L64.775,-22.994L64.775,-20.88C70.492,-20.4 71.068,-20.015 71.068,-14.106L71.068,-3.058L46.424,-3.058L46.424,-14.106C46.424,-20.063 47.001,-20.4 52.573,-20.88L52.573,-22.994L33.214,-22.994L33.214,-20.88C39.17,-20.4 39.699,-20.063 39.699,-14.106L39.699,13.852C39.699,19.809 39.17,20.193 33.406,20.674L33.406,22.691L52.958,22.691L52.958,20.674C47.001,20.193 46.424,19.761 46.424,13.852L46.424,0.113L71.068,0.113L71.068,13.852C71.068,19.809 70.492,20.193 64.295,20.674L64.295,22.691L84.231,22.691L84.231,20.674C78.322,20.193 77.698,19.809 77.698,13.852L77.698,-14.106C77.698,-20.063 78.274,-20.4 84.231,-20.88L84.231,-22.994Z" style="fill:none;"/>
            <path d="M84.231,-22.994L64.775,-22.994L64.775,-20.88C70.492,-20.4 71.068,-20.015 71.068,-14.106L71.068,-3.058L46.424,-3.058L46.424,-14.106C46.424,-20.063 47.001,-20.4 52.573,-20.88L52.573,-22.994L33.214,-22.994L33.214,-20.88C39.17,-20.4 39.699,-20.063 39.699,-14.106L39.699,13.852C39.699,19.809 39.17,20.193 33.406,20.674L33.406,22.691L52.958,22.691L52.958,20.674C47.001,20.193 46.424,19.761 46.424,13.852L46.424,0.113L71.068,0.113L71.068,13.852C71.068,19.809 70.492,20.193 64.295,20.674L64.295,22.691L84.231,22.691L84.231,20.674C78.322,20.193 77.698,19.809 77.698,13.852L77.698,-14.106C77.698,-20.063 78.274,-20.4 84.231,-20.88L84.231,-22.994Z" style="fill:white;fill-rule:nonzero;"/>
        </g>
        <g transform="matrix(1.08367,0,0,1,167.329,38.9697)">
            <path d="M92.78,20.868C90.567,20.347 88.418,19.306 85.944,16.506C83.666,14.163 81.582,11.493 78.067,6.48C75.137,2.118 71.166,-4.132 69.473,-7.257C76.439,-10.186 81.778,-15.134 81.778,-23.403C81.778,-29.197 79.304,-33.429 75.332,-35.903C71.621,-38.377 66.869,-39.223 59.512,-39.223L34.577,-39.223L34.577,-36.358C42.129,-35.837 42.975,-35.317 42.975,-27.179L42.975,10.582C42.975,18.59 42.064,19.306 34.186,19.957L34.186,22.691L60.554,22.691L60.554,19.957C52.741,19.306 51.83,18.59 51.83,10.582L51.83,-4.262L54.564,-4.262C59.577,-4.262 61.27,-3.09 63.028,-0.356C65.957,4.202 69.147,9.996 72.468,14.618C76.96,20.868 80.996,22.952 88.874,23.342C90.046,23.472 91.153,23.538 92.324,23.538L92.78,20.868ZM51.83,-7.452L51.83,-30.89C51.83,-33.364 52.22,-34.47 52.871,-34.991C53.587,-35.512 55.15,-35.903 58.08,-35.903C65.306,-35.903 72.012,-32.127 72.012,-21.905C72.012,-16.762 70.515,-13.051 66.804,-10.186C64.33,-8.233 61.074,-7.452 56.192,-7.452L51.83,-7.452Z" style="fill:none;"/>
            <path d="M92.78,20.868C90.567,20.347 88.418,19.306 85.944,16.506C83.666,14.163 81.582,11.493 78.067,6.48C75.137,2.118 71.166,-4.132 69.473,-7.257C76.439,-10.186 81.778,-15.134 81.778,-23.403C81.778,-29.197 79.304,-33.429 75.332,-35.903C71.621,-38.377 66.869,-39.223 59.512,-39.223L34.577,-39.223L34.577,-36.358C42.129,-35.837 42.975,-35.317 42.975,-27.179L42.975,10.582C42.975,18.59 42.064,19.306 34.186,19.957L34.186,22.691L60.554,22.691L60.554,19.957C52.741,19.306 51.83,18.59 51.83,10.582L51.83,-4.262L54.564,-4.262C59.577,-4.262 61.27,-3.09 63.028,-0.356C65.957,4.202 69.147,9.996 72.468,14.618C76.96,20.868 80.996,22.952 88.874,23.342C90.046,23.472 91.153,23.538 92.324,23.538L92.78,20.868ZM51.83,-7.452L51.83,-30.89C51.83,-33.364 52.22,-34.47 52.871,-34.991C53.587,-35.512 55.15,-35.903 58.08,-35.903C65.306,-35.903 72.012,-32.127 72.012,-21.905C72.012,-16.762 70.515,-13.051 66.804,-10.186C64.33,-8.233 61.074,-7.452 56.192,-7.452L51.83,-7.452Z" style="fill:white;fill-rule:nonzero;"/>
        </g>
        <g transform="matrix(2.66793,0,0,2.01959,-68.1224,-161.9)">
            <rect x="25.654" y="80.1" width="101.554" height="1.229" style="fill:white;"/>
        </g>
        <g transform="matrix(0.848143,0,0,0.949205,1.80823,-57.1953)">
            <path d="M146.495,137.84C146.438,139.137 146.073,140.118 145.402,140.785C144.73,141.452 143.782,141.785 142.558,141.785C141.271,141.785 140.286,141.362 139.601,140.516C138.916,139.669 138.573,138.462 138.573,136.894L138.573,134.98C138.573,133.418 138.928,132.213 139.636,131.367C140.344,130.521 141.329,130.098 142.589,130.098C143.829,130.098 144.77,130.444 145.413,131.137C146.057,131.829 146.422,132.824 146.511,134.121L144.206,134.121C144.185,133.319 144.062,132.766 143.835,132.461C143.609,132.156 143.193,132.004 142.589,132.004C141.974,132.004 141.54,132.219 141.284,132.648C141.029,133.078 140.894,133.785 140.878,134.769L140.878,136.918C140.878,138.048 141.004,138.824 141.257,139.246C141.51,139.668 141.943,139.879 142.558,139.879C143.162,139.879 143.579,139.732 143.808,139.437C144.037,139.143 144.167,138.611 144.198,137.84L146.495,137.84Z" style="fill:none;"/>
            <path d="M155.917,136.965C155.917,138.491 155.557,139.676 154.835,140.519C154.114,141.363 153.113,141.785 151.831,141.785C150.555,141.785 149.553,141.367 148.823,140.531C148.094,139.695 147.724,138.525 147.714,137.019L147.714,135.074C147.714,133.512 148.076,132.292 148.8,131.414C149.524,130.536 150.529,130.098 151.816,130.098C153.081,130.098 154.079,130.529 154.808,131.391C155.537,132.253 155.907,133.462 155.917,135.019L155.917,136.965ZM153.613,135.058C153.613,134.032 153.467,133.269 153.175,132.769C152.883,132.269 152.43,132.019 151.816,132.019C151.206,132.019 150.756,132.26 150.464,132.742C150.172,133.224 150.021,133.957 150.011,134.941L150.011,136.965C150.011,137.96 150.159,138.693 150.456,139.164C150.753,139.635 151.211,139.871 151.831,139.871C152.43,139.871 152.876,139.641 153.167,139.18C153.459,138.719 153.607,138.004 153.613,137.035L153.613,135.058Z" style="fill:none;"/>
            <path d="M160.566,130.254L162.714,138.48L164.855,130.254L167.855,130.254L167.855,141.629L165.55,141.629L165.55,138.551L165.761,133.808L163.488,141.629L161.925,141.629L159.652,133.808L159.863,138.551L159.863,141.629L157.566,141.629L157.566,130.254L160.566,130.254Z" style="fill:none;"/>
            <path d="M171.995,137.629L171.995,141.629L169.698,141.629L169.698,130.254L173.573,130.254C174.698,130.254 175.596,130.603 176.265,131.301C176.934,131.999 177.269,132.905 177.269,134.019C177.269,135.134 176.938,136.014 176.277,136.66C175.615,137.306 174.698,137.629 173.527,137.629L171.995,137.629ZM171.995,135.715L173.573,135.715C174.011,135.715 174.349,135.572 174.589,135.285C174.829,134.999 174.948,134.582 174.948,134.035C174.948,133.467 174.826,133.016 174.581,132.68C174.336,132.344 174.008,132.173 173.597,132.168L171.995,132.168L171.995,135.715Z" style="fill:none;"/>
            <path d="M182.245,137.473L181.105,137.473L181.105,141.629L178.808,141.629L178.808,130.254L182.472,130.254C183.623,130.254 184.512,130.552 185.14,131.148C185.767,131.745 186.081,132.592 186.081,133.691C186.081,135.202 185.532,136.259 184.433,136.863L186.425,141.519L186.425,141.629L183.956,141.629L182.245,137.473ZM181.105,135.558L182.409,135.558C182.868,135.558 183.211,135.406 183.441,135.101C183.67,134.797 183.784,134.389 183.784,133.879C183.784,132.738 183.339,132.168 182.448,132.168L181.105,132.168L181.105,135.558Z" style="fill:none;"/>
            <path d="M193.534,136.707L189.956,136.707L189.956,139.723L194.191,139.723L194.191,141.629L187.659,141.629L187.659,130.254L194.175,130.254L194.175,132.168L189.956,132.168L189.956,134.855L193.534,134.855L193.534,136.707Z" style="fill:none;"/>
            <path d="M203.488,141.629L201.198,141.629L201.198,136.762L197.808,136.762L197.808,141.629L195.511,141.629L195.511,130.254L197.808,130.254L197.808,134.855L201.198,134.855L201.198,130.254L203.488,130.254L203.488,141.629Z" style="fill:none;"/>
            <path d="M211.206,136.707L207.628,136.707L207.628,139.723L211.863,139.723L211.863,141.629L205.331,141.629L205.331,130.254L211.847,130.254L211.847,132.168L207.628,132.168L207.628,134.855L211.206,134.855L211.206,136.707Z" style="fill:none;"/>
            <path d="M221.136,141.629L218.839,141.629L215.48,134.168L215.48,141.629L213.183,141.629L213.183,130.254L215.48,130.254L218.847,137.723L218.847,130.254L221.136,130.254L221.136,141.629Z" style="fill:none;"/>
            <path d="M227.784,138.644C227.784,138.181 227.666,137.831 227.429,137.594C227.192,137.357 226.761,137.111 226.136,136.855C224.995,136.423 224.175,135.917 223.675,135.336C223.175,134.755 222.925,134.069 222.925,133.277C222.925,132.319 223.265,131.549 223.945,130.969C224.624,130.388 225.488,130.098 226.534,130.098C227.232,130.098 227.855,130.245 228.402,130.539C228.948,130.833 229.369,131.249 229.663,131.785C229.958,132.322 230.105,132.931 230.105,133.613L227.816,133.613C227.816,133.082 227.702,132.677 227.476,132.398C227.249,132.12 226.922,131.98 226.495,131.98C226.094,131.98 225.782,132.099 225.558,132.336C225.334,132.573 225.222,132.892 225.222,133.293C225.222,133.605 225.347,133.888 225.597,134.141C225.847,134.393 226.29,134.655 226.925,134.926C228.034,135.327 228.84,135.819 229.343,136.402C229.846,136.986 230.097,137.728 230.097,138.629C230.097,139.618 229.782,140.392 229.152,140.949C228.521,141.506 227.665,141.785 226.581,141.785C225.847,141.785 225.178,141.634 224.573,141.332C223.969,141.03 223.497,140.598 223.155,140.035C222.814,139.473 222.644,138.808 222.644,138.043L224.948,138.043C224.948,138.699 225.076,139.176 225.331,139.473C225.586,139.769 226.003,139.918 226.581,139.918C227.383,139.918 227.784,139.493 227.784,138.644Z" style="fill:none;"/>
            <rect x="231.722" y="130.254" width="2.297" height="11.375" style="fill:none;"/>
            <path d="M239.652,138.504L241.566,130.254L244.128,130.254L240.847,141.629L238.456,141.629L235.198,130.254L237.745,130.254L239.652,138.504Z" style="fill:none;"/>
            <path d="M251.073,136.707L247.495,136.707L247.495,139.723L251.73,139.723L251.73,141.629L245.198,141.629L245.198,130.254L251.714,130.254L251.714,132.168L247.495,132.168L247.495,134.855L251.073,134.855L251.073,136.707Z" style="fill:none;"/>
            <path d="M261.542,138.644C261.542,138.181 261.424,137.831 261.187,137.594C260.95,137.357 260.519,137.111 259.894,136.855C258.753,136.423 257.933,135.917 257.433,135.336C256.933,134.755 256.683,134.069 256.683,133.277C256.683,132.319 257.023,131.549 257.702,130.969C258.382,130.388 259.245,130.098 260.292,130.098C260.99,130.098 261.613,130.245 262.159,130.539C262.706,130.833 263.127,131.249 263.421,131.785C263.715,132.322 263.863,132.931 263.863,133.613L261.573,133.613C261.573,133.082 261.46,132.677 261.234,132.398C261.007,132.12 260.68,131.98 260.253,131.98C259.852,131.98 259.54,132.099 259.316,132.336C259.092,132.573 258.98,132.892 258.98,133.293C258.98,133.605 259.105,133.888 259.355,134.141C259.605,134.393 260.047,134.655 260.683,134.926C261.792,135.327 262.598,135.819 263.101,136.402C263.603,136.986 263.855,137.728 263.855,138.629C263.855,139.618 263.54,140.392 262.909,140.949C262.279,141.506 261.422,141.785 260.339,141.785C259.605,141.785 258.935,141.634 258.331,141.332C257.727,141.03 257.254,140.598 256.913,140.035C256.572,139.473 256.402,138.808 256.402,138.043L258.706,138.043C258.706,138.699 258.834,139.176 259.089,139.473C259.344,139.769 259.761,139.918 260.339,139.918C261.141,139.918 261.542,139.493 261.542,138.644Z" style="fill:none;"/>
            <path d="M273.089,137.84C273.032,139.137 272.667,140.118 271.995,140.785C271.323,141.452 270.376,141.785 269.152,141.785C267.865,141.785 266.879,141.362 266.195,140.516C265.51,139.669 265.167,138.462 265.167,136.894L265.167,134.98C265.167,133.418 265.521,132.213 266.23,131.367C266.938,130.521 267.922,130.098 269.183,130.098C270.422,130.098 271.364,130.444 272.007,131.137C272.65,131.829 273.016,132.824 273.105,134.121L270.8,134.121C270.779,133.319 270.655,132.766 270.429,132.461C270.202,132.156 269.787,132.004 269.183,132.004C268.568,132.004 268.133,132.219 267.878,132.648C267.623,133.078 267.488,133.785 267.472,134.769L267.472,136.918C267.472,138.048 267.598,138.824 267.851,139.246C268.103,139.668 268.537,139.879 269.152,139.879C269.756,139.879 270.172,139.732 270.402,139.437C270.631,139.143 270.761,138.611 270.792,137.84L273.089,137.84Z" style="fill:none;"/>
            <path d="M282.48,141.629L280.191,141.629L280.191,136.762L276.8,136.762L276.8,141.629L274.503,141.629L274.503,130.254L276.8,130.254L276.8,134.855L280.191,134.855L280.191,130.254L282.48,130.254L282.48,141.629Z" style="fill:none;"/>
            <path d="M292.331,136.965C292.331,138.491 291.971,139.676 291.249,140.519C290.528,141.363 289.527,141.785 288.245,141.785C286.969,141.785 285.967,141.367 285.238,140.531C284.508,139.695 284.139,138.525 284.128,137.019L284.128,135.074C284.128,133.512 284.49,132.292 285.214,131.414C285.938,130.536 286.943,130.098 288.23,130.098C289.495,130.098 290.493,130.529 291.222,131.391C291.951,132.253 292.321,133.462 292.331,135.019L292.331,136.965ZM290.027,135.058C290.027,134.032 289.881,133.269 289.589,132.769C289.297,132.269 288.844,132.019 288.23,132.019C287.62,132.019 287.17,132.26 286.878,132.742C286.586,133.224 286.435,133.957 286.425,134.941L286.425,136.965C286.425,137.96 286.573,138.693 286.87,139.164C287.167,139.635 287.626,139.871 288.245,139.871C288.844,139.871 289.29,139.641 289.581,139.18C289.873,138.719 290.021,138.004 290.027,137.035L290.027,135.058Z" style="fill:none;"/>
            <path d="M301.988,136.965C301.988,138.491 301.627,139.676 300.905,140.519C300.184,141.363 299.183,141.785 297.902,141.785C296.626,141.785 295.623,141.367 294.894,140.531C294.165,139.695 293.795,138.525 293.784,137.019L293.784,135.074C293.784,133.512 294.146,132.292 294.87,131.414C295.594,130.536 296.599,130.098 297.886,130.098C299.152,130.098 300.149,130.529 300.878,131.391C301.607,132.253 301.977,133.462 301.988,135.019L301.988,136.965ZM299.683,135.058C299.683,134.032 299.537,133.269 299.245,132.769C298.954,132.269 298.501,132.019 297.886,132.019C297.277,132.019 296.826,132.26 296.534,132.742C296.243,133.224 296.092,133.957 296.081,134.941L296.081,136.965C296.081,137.96 296.23,138.693 296.527,139.164C296.823,139.635 297.282,139.871 297.902,139.871C298.501,139.871 298.946,139.641 299.238,139.18C299.529,138.719 299.678,138.004 299.683,137.035L299.683,135.058Z" style="fill:none;"/>
            <path d="M305.933,139.723L309.964,139.723L309.964,141.629L303.636,141.629L303.636,130.254L305.933,130.254L305.933,139.723Z" style="fill:none;"/>
            <path d="M146.761,157.629L144.472,157.629L144.472,152.762L141.081,152.762L141.081,157.629L138.784,157.629L138.784,146.254L141.081,146.254L141.081,150.855L144.472,150.855L144.472,146.254L146.761,146.254L146.761,157.629Z" style="fill:none;"/>
            <path d="M154.48,152.707L150.902,152.707L150.902,155.723L155.136,155.723L155.136,157.629L148.605,157.629L148.605,146.254L155.12,146.254L155.12,148.168L150.902,148.168L150.902,150.855L154.48,150.855L154.48,152.707Z" style="fill:none;"/>
            <path d="M161.886,155.301L158.753,155.301L158.144,157.629L155.714,157.629L159.269,146.254L161.37,146.254L164.948,157.629L162.495,157.629L161.886,155.301ZM159.253,153.387L161.378,153.387L160.316,149.332L159.253,153.387Z" style="fill:none;"/>
            <path d="M168.308,155.723L172.339,155.723L172.339,157.629L166.011,157.629L166.011,146.254L168.308,146.254L168.308,155.723Z" style="fill:none;"/>
            <path d="M179.433,148.168L176.62,148.168L176.62,157.629L174.316,157.629L174.316,148.168L171.55,148.168L171.55,146.254L179.433,146.254L179.433,148.168Z" style="fill:none;"/>
            <path d="M188.73,157.629L186.441,157.629L186.441,152.762L183.05,152.762L183.05,157.629L180.753,157.629L180.753,146.254L183.05,146.254L183.05,150.855L186.441,150.855L186.441,146.254L188.73,146.254L188.73,157.629Z" style="fill:none;"/>
            <path d="M197.706,153.473L196.566,153.473L196.566,157.629L194.269,157.629L194.269,146.254L197.933,146.254C199.084,146.254 199.973,146.552 200.601,147.148C201.228,147.745 201.542,148.592 201.542,149.691C201.542,151.202 200.993,152.259 199.894,152.863L201.886,157.519L201.886,157.629L199.417,157.629L197.706,153.473ZM196.566,151.558L197.87,151.558C198.329,151.558 198.672,151.406 198.902,151.101C199.131,150.797 199.245,150.389 199.245,149.879C199.245,148.738 198.8,148.168 197.909,148.168L196.566,148.168L196.566,151.558Z" style="fill:none;"/>
            <path d="M208.995,152.707L205.417,152.707L205.417,155.723L209.652,155.723L209.652,157.629L203.12,157.629L203.12,146.254L209.636,146.254L209.636,148.168L205.417,148.168L205.417,150.855L208.995,150.855L208.995,152.707Z" style="fill:none;"/>
            <path d="M215.777,154.644C215.777,154.181 215.658,153.831 215.421,153.594C215.184,153.357 214.753,153.111 214.128,152.855C212.988,152.423 212.167,151.917 211.667,151.336C211.167,150.755 210.917,150.069 210.917,149.277C210.917,148.319 211.257,147.549 211.937,146.969C212.616,146.388 213.48,146.098 214.527,146.098C215.224,146.098 215.847,146.245 216.394,146.539C216.941,146.833 217.361,147.249 217.655,147.785C217.95,148.322 218.097,148.931 218.097,149.613L215.808,149.613C215.808,149.082 215.695,148.677 215.468,148.398C215.241,148.12 214.915,147.98 214.488,147.98C214.086,147.98 213.774,148.099 213.55,148.336C213.326,148.573 213.214,148.892 213.214,149.293C213.214,149.605 213.339,149.888 213.589,150.141C213.839,150.393 214.282,150.655 214.917,150.926C216.027,151.327 216.833,151.819 217.335,152.402C217.838,152.986 218.089,153.728 218.089,154.629C218.089,155.618 217.774,156.392 217.144,156.949C216.514,157.506 215.657,157.785 214.573,157.785C213.839,157.785 213.17,157.634 212.566,157.332C211.961,157.03 211.489,156.598 211.148,156.035C210.807,155.473 210.636,154.808 210.636,154.043L212.941,154.043C212.941,154.699 213.068,155.176 213.323,155.473C213.579,155.769 213.995,155.918 214.573,155.918C215.376,155.918 215.777,155.493 215.777,154.644Z" style="fill:none;"/>
            <path d="M225.488,152.707L221.909,152.707L221.909,155.723L226.144,155.723L226.144,157.629L219.613,157.629L219.613,146.254L226.128,146.254L226.128,148.168L221.909,148.168L221.909,150.855L225.488,150.855L225.488,152.707Z" style="fill:none;"/>
            <path d="M232.894,155.301L229.761,155.301L229.152,157.629L226.722,157.629L230.277,146.254L232.378,146.254L235.956,157.629L233.503,157.629L232.894,155.301ZM230.261,153.387L232.386,153.387L231.323,149.332L230.261,153.387Z" style="fill:none;"/>
            <path d="M240.464,153.473L239.323,153.473L239.323,157.629L237.027,157.629L237.027,146.254L240.691,146.254C241.842,146.254 242.731,146.552 243.359,147.148C243.986,147.745 244.3,148.592 244.3,149.691C244.3,151.202 243.751,152.259 242.652,152.863L244.644,157.519L244.644,157.629L242.175,157.629L240.464,153.473ZM239.323,151.558L240.628,151.558C241.086,151.558 241.43,151.406 241.659,151.101C241.889,150.797 242.003,150.389 242.003,149.879C242.003,148.738 241.558,148.168 240.667,148.168L239.323,148.168L239.323,151.558Z" style="fill:none;"/>
            <path d="M253.589,153.84C253.532,155.137 253.167,156.118 252.495,156.785C251.823,157.452 250.876,157.785 249.652,157.785C248.365,157.785 247.379,157.362 246.695,156.516C246.01,155.669 245.667,154.462 245.667,152.894L245.667,150.98C245.667,149.418 246.021,148.213 246.73,147.367C247.438,146.521 248.422,146.098 249.683,146.098C250.922,146.098 251.864,146.444 252.507,147.137C253.15,147.829 253.516,148.824 253.605,150.121L251.3,150.121C251.279,149.319 251.155,148.766 250.929,148.461C250.702,148.156 250.287,148.004 249.683,148.004C249.068,148.004 248.633,148.219 248.378,148.648C248.123,149.078 247.988,149.785 247.972,150.769L247.972,152.918C247.972,154.048 248.098,154.824 248.351,155.246C248.603,155.668 249.037,155.879 249.652,155.879C250.256,155.879 250.672,155.732 250.902,155.437C251.131,155.143 251.261,154.611 251.292,153.84L253.589,153.84Z" style="fill:none;"/>
            <path d="M262.98,157.629L260.691,157.629L260.691,152.762L257.3,152.762L257.3,157.629L255.003,157.629L255.003,146.254L257.3,146.254L257.3,150.855L260.691,150.855L260.691,146.254L262.98,146.254L262.98,157.629Z" style="fill:none;"/>
            <path d="M146.495,137.84C146.438,139.137 146.073,140.118 145.402,140.785C144.73,141.452 143.782,141.785 142.558,141.785C141.271,141.785 140.286,141.362 139.601,140.516C138.916,139.669 138.573,138.462 138.573,136.894L138.573,134.98C138.573,133.418 138.928,132.213 139.636,131.367C140.344,130.521 141.329,130.098 142.589,130.098C143.829,130.098 144.77,130.444 145.413,131.137C146.057,131.829 146.422,132.824 146.511,134.121L144.206,134.121C144.185,133.319 144.062,132.766 143.835,132.461C143.609,132.156 143.193,132.004 142.589,132.004C141.974,132.004 141.54,132.219 141.284,132.648C141.029,133.078 140.894,133.785 140.878,134.769L140.878,136.918C140.878,138.048 141.004,138.824 141.257,139.246C141.51,139.668 141.943,139.879 142.558,139.879C143.162,139.879 143.579,139.732 143.808,139.437C144.037,139.143 144.167,138.611 144.198,137.84L146.495,137.84Z" style="fill:white;fill-rule:nonzero;"/>
            <path d="M155.917,136.965C155.917,138.491 155.557,139.676 154.835,140.519C154.114,141.363 153.113,141.785 151.831,141.785C150.555,141.785 149.553,141.367 148.823,140.531C148.094,139.695 147.724,138.525 147.714,137.019L147.714,135.074C147.714,133.512 148.076,132.292 148.8,131.414C149.524,130.536 150.529,130.098 151.816,130.098C153.081,130.098 154.079,130.529 154.808,131.391C155.537,132.253 155.907,133.462 155.917,135.019L155.917,136.965ZM153.613,135.058C153.613,134.032 153.467,133.269 153.175,132.769C152.883,132.269 152.43,132.019 151.816,132.019C151.206,132.019 150.756,132.26 150.464,132.742C150.172,133.224 150.021,133.957 150.011,134.941L150.011,136.965C150.011,137.96 150.159,138.693 150.456,139.164C150.753,139.635 151.211,139.871 151.831,139.871C152.43,139.871 152.876,139.641 153.167,139.18C153.459,138.719 153.607,138.004 153.613,137.035L153.613,135.058Z" style="fill:white;fill-rule:nonzero;"/>
            <path d="M160.566,130.254L162.714,138.48L164.855,130.254L167.855,130.254L167.855,141.629L165.55,141.629L165.55,138.551L165.761,133.808L163.488,141.629L161.925,141.629L159.652,133.808L159.863,138.551L159.863,141.629L157.566,141.629L157.566,130.254L160.566,130.254Z" style="fill:white;fill-rule:nonzero;"/>
            <path d="M171.995,137.629L171.995,141.629L169.698,141.629L169.698,130.254L173.573,130.254C174.698,130.254 175.596,130.603 176.265,131.301C176.934,131.999 177.269,132.905 177.269,134.019C177.269,135.134 176.938,136.014 176.277,136.66C175.615,137.306 174.698,137.629 173.527,137.629L171.995,137.629ZM171.995,135.715L173.573,135.715C174.011,135.715 174.349,135.572 174.589,135.285C174.829,134.999 174.948,134.582 174.948,134.035C174.948,133.467 174.826,133.016 174.581,132.68C174.336,132.344 174.008,132.173 173.597,132.168L171.995,132.168L171.995,135.715Z" style="fill:white;fill-rule:nonzero;"/>
            <path d="M182.245,137.473L181.105,137.473L181.105,141.629L178.808,141.629L178.808,130.254L182.472,130.254C183.623,130.254 184.512,130.552 185.14,131.148C185.767,131.745 186.081,132.592 186.081,133.691C186.081,135.202 185.532,136.259 184.433,136.863L186.425,141.519L186.425,141.629L183.956,141.629L182.245,137.473ZM181.105,135.558L182.409,135.558C182.868,135.558 183.211,135.406 183.441,135.101C183.67,134.797 183.784,134.389 183.784,133.879C183.784,132.738 183.339,132.168 182.448,132.168L181.105,132.168L181.105,135.558Z" style="fill:white;fill-rule:nonzero;"/>
            <path d="M193.534,136.707L189.956,136.707L189.956,139.723L194.191,139.723L194.191,141.629L187.659,141.629L187.659,130.254L194.175,130.254L194.175,132.168L189.956,132.168L189.956,134.855L193.534,134.855L193.534,136.707Z" style="fill:white;fill-rule:nonzero;"/>
            <path d="M203.488,141.629L201.198,141.629L201.198,136.762L197.808,136.762L197.808,141.629L195.511,141.629L195.511,130.254L197.808,130.254L197.808,134.855L201.198,134.855L201.198,130.254L203.488,130.254L203.488,141.629Z" style="fill:white;fill-rule:nonzero;"/>
            <path d="M211.206,136.707L207.628,136.707L207.628,139.723L211.863,139.723L211.863,141.629L205.331,141.629L205.331,130.254L211.847,130.254L211.847,132.168L207.628,132.168L207.628,134.855L211.206,134.855L211.206,136.707Z" style="fill:white;fill-rule:nonzero;"/>
            <path d="M221.136,141.629L218.839,141.629L215.48,134.168L215.48,141.629L213.183,141.629L213.183,130.254L215.48,130.254L218.847,137.723L218.847,130.254L221.136,130.254L221.136,141.629Z" style="fill:white;fill-rule:nonzero;"/>
            <path d="M227.784,138.644C227.784,138.181 227.666,137.831 227.429,137.594C227.192,137.357 226.761,137.111 226.136,136.855C224.995,136.423 224.175,135.917 223.675,135.336C223.175,134.755 222.925,134.069 222.925,133.277C222.925,132.319 223.265,131.549 223.945,130.969C224.624,130.388 225.488,130.098 226.534,130.098C227.232,130.098 227.855,130.245 228.402,130.539C228.948,130.833 229.369,131.249 229.663,131.785C229.958,132.322 230.105,132.931 230.105,133.613L227.816,133.613C227.816,133.082 227.702,132.677 227.476,132.398C227.249,132.12 226.922,131.98 226.495,131.98C226.094,131.98 225.782,132.099 225.558,132.336C225.334,132.573 225.222,132.892 225.222,133.293C225.222,133.605 225.347,133.888 225.597,134.141C225.847,134.393 226.29,134.655 226.925,134.926C228.034,135.327 228.84,135.819 229.343,136.402C229.846,136.986 230.097,137.728 230.097,138.629C230.097,139.618 229.782,140.392 229.152,140.949C228.521,141.506 227.665,141.785 226.581,141.785C225.847,141.785 225.178,141.634 224.573,141.332C223.969,141.03 223.497,140.598 223.155,140.035C222.814,139.473 222.644,138.808 222.644,138.043L224.948,138.043C224.948,138.699 225.076,139.176 225.331,139.473C225.586,139.769 226.003,139.918 226.581,139.918C227.383,139.918 227.784,139.493 227.784,138.644Z" style="fill:white;fill-rule:nonzero;"/>
            <rect x="231.722" y="130.254" width="2.297" height="11.375" style="fill:white;fill-rule:nonzero;"/>
            <path d="M239.652,138.504L241.566,130.254L244.128,130.254L240.847,141.629L238.456,141.629L235.198,130.254L237.745,130.254L239.652,138.504Z" style="fill:white;fill-rule:nonzero;"/>
            <path d="M251.073,136.707L247.495,136.707L247.495,139.723L251.73,139.723L251.73,141.629L245.198,141.629L245.198,130.254L251.714,130.254L251.714,132.168L247.495,132.168L247.495,134.855L251.073,134.855L251.073,136.707Z" style="fill:white;fill-rule:nonzero;"/>
            <path d="M261.542,138.644C261.542,138.181 261.424,137.831 261.187,137.594C260.95,137.357 260.519,137.111 259.894,136.855C258.753,136.423 257.933,135.917 257.433,135.336C256.933,134.755 256.683,134.069 256.683,133.277C256.683,132.319 257.023,131.549 257.702,130.969C258.382,130.388 259.245,130.098 260.292,130.098C260.99,130.098 261.613,130.245 262.159,130.539C262.706,130.833 263.127,131.249 263.421,131.785C263.715,132.322 263.863,132.931 263.863,133.613L261.573,133.613C261.573,133.082 261.46,132.677 261.234,132.398C261.007,132.12 260.68,131.98 260.253,131.98C259.852,131.98 259.54,132.099 259.316,132.336C259.092,132.573 258.98,132.892 258.98,133.293C258.98,133.605 259.105,133.888 259.355,134.141C259.605,134.393 260.047,134.655 260.683,134.926C261.792,135.327 262.598,135.819 263.101,136.402C263.603,136.986 263.855,137.728 263.855,138.629C263.855,139.618 263.54,140.392 262.909,140.949C262.279,141.506 261.422,141.785 260.339,141.785C259.605,141.785 258.935,141.634 258.331,141.332C257.727,141.03 257.254,140.598 256.913,140.035C256.572,139.473 256.402,138.808 256.402,138.043L258.706,138.043C258.706,138.699 258.834,139.176 259.089,139.473C259.344,139.769 259.761,139.918 260.339,139.918C261.141,139.918 261.542,139.493 261.542,138.644Z" style="fill:white;fill-rule:nonzero;"/>
            <path d="M273.089,137.84C273.032,139.137 272.667,140.118 271.995,140.785C271.323,141.452 270.376,141.785 269.152,141.785C267.865,141.785 266.879,141.362 266.195,140.516C265.51,139.669 265.167,138.462 265.167,136.894L265.167,134.98C265.167,133.418 265.521,132.213 266.23,131.367C266.938,130.521 267.922,130.098 269.183,130.098C270.422,130.098 271.364,130.444 272.007,131.137C272.65,131.829 273.016,132.824 273.105,134.121L270.8,134.121C270.779,133.319 270.655,132.766 270.429,132.461C270.202,132.156 269.787,132.004 269.183,132.004C268.568,132.004 268.133,132.219 267.878,132.648C267.623,133.078 267.488,133.785 267.472,134.769L267.472,136.918C267.472,138.048 267.598,138.824 267.851,139.246C268.103,139.668 268.537,139.879 269.152,139.879C269.756,139.879 270.172,139.732 270.402,139.437C270.631,139.143 270.761,138.611 270.792,137.84L273.089,137.84Z" style="fill:white;fill-rule:nonzero;"/>
            <path d="M282.48,141.629L280.191,141.629L280.191,136.762L276.8,136.762L276.8,141.629L274.503,141.629L274.503,130.254L276.8,130.254L276.8,134.855L280.191,134.855L280.191,130.254L282.48,130.254L282.48,141.629Z" style="fill:white;fill-rule:nonzero;"/>
            <path d="M292.331,136.965C292.331,138.491 291.971,139.676 291.249,140.519C290.528,141.363 289.527,141.785 288.245,141.785C286.969,141.785 285.967,141.367 285.238,140.531C284.508,139.695 284.139,138.525 284.128,137.019L284.128,135.074C284.128,133.512 284.49,132.292 285.214,131.414C285.938,130.536 286.943,130.098 288.23,130.098C289.495,130.098 290.493,130.529 291.222,131.391C291.951,132.253 292.321,133.462 292.331,135.019L292.331,136.965ZM290.027,135.058C290.027,134.032 289.881,133.269 289.589,132.769C289.297,132.269 288.844,132.019 288.23,132.019C287.62,132.019 287.17,132.26 286.878,132.742C286.586,133.224 286.435,133.957 286.425,134.941L286.425,136.965C286.425,137.96 286.573,138.693 286.87,139.164C287.167,139.635 287.626,139.871 288.245,139.871C288.844,139.871 289.29,139.641 289.581,139.18C289.873,138.719 290.021,138.004 290.027,137.035L290.027,135.058Z" style="fill:white;fill-rule:nonzero;"/>
            <path d="M301.988,136.965C301.988,138.491 301.627,139.676 300.905,140.519C300.184,141.363 299.183,141.785 297.902,141.785C296.626,141.785 295.623,141.367 294.894,140.531C294.165,139.695 293.795,138.525 293.784,137.019L293.784,135.074C293.784,133.512 294.146,132.292 294.87,131.414C295.594,130.536 296.599,130.098 297.886,130.098C299.152,130.098 300.149,130.529 300.878,131.391C301.607,132.253 301.977,133.462 301.988,135.019L301.988,136.965ZM299.683,135.058C299.683,134.032 299.537,133.269 299.245,132.769C298.954,132.269 298.501,132.019 297.886,132.019C297.277,132.019 296.826,132.26 296.534,132.742C296.243,133.224 296.092,133.957 296.081,134.941L296.081,136.965C296.081,137.96 296.23,138.693 296.527,139.164C296.823,139.635 297.282,139.871 297.902,139.871C298.501,139.871 298.946,139.641 299.238,139.18C299.529,138.719 299.678,138.004 299.683,137.035L299.683,135.058Z" style="fill:white;fill-rule:nonzero;"/>
            <path d="M305.933,139.723L309.964,139.723L309.964,141.629L303.636,141.629L303.636,130.254L305.933,130.254L305.933,139.723Z" style="fill:white;fill-rule:nonzero;"/>
            <path d="M146.761,157.629L144.472,157.629L144.472,152.762L141.081,152.762L141.081,157.629L138.784,157.629L138.784,146.254L141.081,146.254L141.081,150.855L144.472,150.855L144.472,146.254L146.761,146.254L146.761,157.629Z" style="fill:white;fill-rule:nonzero;"/>
            <path d="M154.48,152.707L150.902,152.707L150.902,155.723L155.136,155.723L155.136,157.629L148.605,157.629L148.605,146.254L155.12,146.254L155.12,148.168L150.902,148.168L150.902,150.855L154.48,150.855L154.48,152.707Z" style="fill:white;fill-rule:nonzero;"/>
            <path d="M161.886,155.301L158.753,155.301L158.144,157.629L155.714,157.629L159.269,146.254L161.37,146.254L164.948,157.629L162.495,157.629L161.886,155.301ZM159.253,153.387L161.378,153.387L160.316,149.332L159.253,153.387Z" style="fill:white;fill-rule:nonzero;"/>
            <path d="M168.308,155.723L172.339,155.723L172.339,157.629L166.011,157.629L166.011,146.254L168.308,146.254L168.308,155.723Z" style="fill:white;fill-rule:nonzero;"/>
            <path d="M179.433,148.168L176.62,148.168L176.62,157.629L174.316,157.629L174.316,148.168L171.55,148.168L171.55,146.254L179.433,146.254L179.433,148.168Z" style="fill:white;fill-rule:nonzero;"/>
            <path d="M188.73,157.629L186.441,157.629L186.441,152.762L183.05,152.762L183.05,157.629L180.753,157.629L180.753,146.254L183.05,146.254L183.05,150.855L186.441,150.855L186.441,146.254L188.73,146.254L188.73,157.629Z" style="fill:white;fill-rule:nonzero;"/>
            <path d="M197.706,153.473L196.566,153.473L196.566,157.629L194.269,157.629L194.269,146.254L197.933,146.254C199.084,146.254 199.973,146.552 200.601,147.148C201.228,147.745 201.542,148.592 201.542,149.691C201.542,151.202 200.993,152.259 199.894,152.863L201.886,157.519L201.886,157.629L199.417,157.629L197.706,153.473ZM196.566,151.558L197.87,151.558C198.329,151.558 198.672,151.406 198.902,151.101C199.131,150.797 199.245,150.389 199.245,149.879C199.245,148.738 198.8,148.168 197.909,148.168L196.566,148.168L196.566,151.558Z" style="fill:white;fill-rule:nonzero;"/>
            <path d="M208.995,152.707L205.417,152.707L205.417,155.723L209.652,155.723L209.652,157.629L203.12,157.629L203.12,146.254L209.636,146.254L209.636,148.168L205.417,148.168L205.417,150.855L208.995,150.855L208.995,152.707Z" style="fill:white;fill-rule:nonzero;"/>
            <path d="M215.777,154.644C215.777,154.181 215.658,153.831 215.421,153.594C215.184,153.357 214.753,153.111 214.128,152.855C212.988,152.423 212.167,151.917 211.667,151.336C211.167,150.755 210.917,150.069 210.917,149.277C210.917,148.319 211.257,147.549 211.937,146.969C212.616,146.388 213.48,146.098 214.527,146.098C215.224,146.098 215.847,146.245 216.394,146.539C216.941,146.833 217.361,147.249 217.655,147.785C217.95,148.322 218.097,148.931 218.097,149.613L215.808,149.613C215.808,149.082 215.695,148.677 215.468,148.398C215.241,148.12 214.915,147.98 214.488,147.98C214.086,147.98 213.774,148.099 213.55,148.336C213.326,148.573 213.214,148.892 213.214,149.293C213.214,149.605 213.339,149.888 213.589,150.141C213.839,150.393 214.282,150.655 214.917,150.926C216.027,151.327 216.833,151.819 217.335,152.402C217.838,152.986 218.089,153.728 218.089,154.629C218.089,155.618 217.774,156.392 217.144,156.949C216.514,157.506 215.657,157.785 214.573,157.785C213.839,157.785 213.17,157.634 212.566,157.332C211.961,157.03 211.489,156.598 211.148,156.035C210.807,155.473 210.636,154.808 210.636,154.043L212.941,154.043C212.941,154.699 213.068,155.176 213.323,155.473C213.579,155.769 213.995,155.918 214.573,155.918C215.376,155.918 215.777,155.493 215.777,154.644Z" style="fill:white;fill-rule:nonzero;"/>
            <path d="M225.488,152.707L221.909,152.707L221.909,155.723L226.144,155.723L226.144,157.629L219.613,157.629L219.613,146.254L226.128,146.254L226.128,148.168L221.909,148.168L221.909,150.855L225.488,150.855L225.488,152.707Z" style="fill:white;fill-rule:nonzero;"/>
            <path d="M232.894,155.301L229.761,155.301L229.152,157.629L226.722,157.629L230.277,146.254L232.378,146.254L235.956,157.629L233.503,157.629L232.894,155.301ZM230.261,153.387L232.386,153.387L231.323,149.332L230.261,153.387Z" style="fill:white;fill-rule:nonzero;"/>
            <path d="M240.464,153.473L239.323,153.473L239.323,157.629L237.027,157.629L237.027,146.254L240.691,146.254C241.842,146.254 242.731,146.552 243.359,147.148C243.986,147.745 244.3,148.592 244.3,149.691C244.3,151.202 243.751,152.259 242.652,152.863L244.644,157.519L244.644,157.629L242.175,157.629L240.464,153.473ZM239.323,151.558L240.628,151.558C241.086,151.558 241.43,151.406 241.659,151.101C241.889,150.797 242.003,150.389 242.003,149.879C242.003,148.738 241.558,148.168 240.667,148.168L239.323,148.168L239.323,151.558Z" style="fill:white;fill-rule:nonzero;"/>
            <path d="M253.589,153.84C253.532,155.137 253.167,156.118 252.495,156.785C251.823,157.452 250.876,157.785 249.652,157.785C248.365,157.785 247.379,157.362 246.695,156.516C246.01,155.669 245.667,154.462 245.667,152.894L245.667,150.98C245.667,149.418 246.021,148.213 246.73,147.367C247.438,146.521 248.422,146.098 249.683,146.098C250.922,146.098 251.864,146.444 252.507,147.137C253.15,147.829 253.516,148.824 253.605,150.121L251.3,150.121C251.279,149.319 251.155,148.766 250.929,148.461C250.702,148.156 250.287,148.004 249.683,148.004C249.068,148.004 248.633,148.219 248.378,148.648C248.123,149.078 247.988,149.785 247.972,150.769L247.972,152.918C247.972,154.048 248.098,154.824 248.351,155.246C248.603,155.668 249.037,155.879 249.652,155.879C250.256,155.879 250.672,155.732 250.902,155.437C251.131,155.143 251.261,154.611 251.292,153.84L253.589,153.84Z" style="fill:white;fill-rule:nonzero;"/>
            <path d="M262.98,157.629L260.691,157.629L260.691,152.762L257.3,152.762L257.3,157.629L255.003,157.629L255.003,146.254L257.3,146.254L257.3,150.855L260.691,150.855L260.691,146.254L262.98,146.254L262.98,157.629Z" style="fill:white;fill-rule:nonzero;"/>
        </g>
    </g>
</svg>
